<?xml version="1.0" encoding="UTF-8"?>
<svg id="Layer_1" data-name="Layer 1" xmlns="http://www.w3.org/2000/svg" viewBox="0 0 1024 1024">
  <defs>
    <style>
      .cls-1 {
        fill: #fff;
      }

      .cls-2 {
        fill: #ed1c24;
      }

      .cls-3 {
        fill: #231f20;
      }
    </style>
  </defs>
  <circle class="cls-1" cx="511.78" cy="511.78" r="494.85"/>
  <rect class="cls-2" x="143.72" y="598.6" width="397.56" height="34.73" transform="translate(-272 270.85) rotate(-31.61)"/>
  <path class="cls-3" d="m511.79,1024C229.35,1024-.43,794.22-.43,511.79S229.35-.43,511.79-.43s512.21,229.78,512.21,512.21-229.78,512.21-512.21,512.21Zm0-989.7C248.5,34.3,34.3,248.5,34.3,511.79s214.2,477.49,477.49,477.49,477.49-214.2,477.49-477.49S775.07,34.3,511.79,34.3Z"/>
  <rect class="cls-3" x="494.42" y="95.07" width="34.73" height="416.72"/>
  <rect class="cls-3" x="585.58" y="469.86" width="34.73" height="240.12" transform="translate(-237.35 663.8) rotate(-49.4)"/>
  <g>
    <circle class="cls-3" cx="511.78" cy="511.78" r="26.04"/>
    <path class="cls-3" d="m511.79,555.19c-23.94,0-43.41-19.47-43.41-43.41s19.47-43.41,43.41-43.41,43.41,19.47,43.41,43.41-19.47,43.41-43.41,43.41Zm0-52.09c-4.79,0-8.68,3.89-8.68,8.68s3.89,8.68,8.68,8.68,8.68-3.89,8.68-8.68-3.89-8.68-8.68-8.68Z"/>
  </g>
</svg>